<svg id="Layer_1" data-name="Layer 1" xmlns="http://www.w3.org/2000/svg" viewBox="0 0 64 64"><defs><style>.cls-1{fill:#202a36;}.cls-2{fill:#ff8d2d;}</style></defs><path class="cls-1" d="M18.91,27.09a5.93,5.93,0,0,0,.22,1.77,10.71,10.71,0,0,0,.64,1.44.87.87,0,0,1,.14.46.79.79,0,0,1-.38.6l-1.26.84a1,1,0,0,1-.52.18.92.92,0,0,1-.6-.28,6.19,6.19,0,0,1-.72-.94c-.2-.34-.4-.72-.62-1.18A7.34,7.34,0,0,1,10,32.73,5.49,5.49,0,0,1,6,31.3a5.14,5.14,0,0,1-1.48-3.84A5.14,5.14,0,0,1,6.3,23.35a7.28,7.28,0,0,1,4.89-1.55A15.69,15.69,0,0,1,13.3,22c.74.1,1.5.26,2.3.43V20.94a4.43,4.43,0,0,0-.94-3.2,4.64,4.64,0,0,0-3.25-.91,9.1,9.1,0,0,0-2.16.26,15.34,15.34,0,0,0-2.15.67,5.74,5.74,0,0,1-.7.26,1,1,0,0,1-.32.07c-.28,0-.42-.2-.42-.62v-1a1.27,1.27,0,0,1,.14-.7,1.49,1.49,0,0,1,.56-.41,11.23,11.23,0,0,1,2.51-.9A12.1,12.1,0,0,1,12,14.1c2.38,0,4.11.54,5.23,1.61a6.61,6.61,0,0,1,1.66,4.91v6.47Zm-8.1,3a6.42,6.42,0,0,0,2-.36,4.52,4.52,0,0,0,1.9-1.27,3.17,3.17,0,0,0,.68-1.28,7.18,7.18,0,0,0,.2-1.74v-.84c-.58-.13-1.2-.25-1.84-.33a15.07,15.07,0,0,0-1.88-.12A4.66,4.66,0,0,0,9,25a2.79,2.79,0,0,0-1,2.3,2.77,2.77,0,0,0,.74,2.11,2.77,2.77,0,0,0,2.1.74Zm16,2.16a1.12,1.12,0,0,1-.76-.2,1.63,1.63,0,0,1-.42-.78L21,15.88a3.5,3.5,0,0,1-.18-.8.44.44,0,0,1,.48-.5h2a1.11,1.11,0,0,1,.78.2,1.64,1.64,0,0,1,.4.78l3.35,13.21,3.11-13.21a1.4,1.4,0,0,1,.38-.78,1.38,1.38,0,0,1,.8-.2h1.59a1.2,1.2,0,0,1,.8.2,1.35,1.35,0,0,1,.38.78L38,28.93l3.45-13.37a1.72,1.72,0,0,1,.4-.78,1.3,1.3,0,0,1,.78-.2h1.85a.44.44,0,0,1,.5.5,2,2,0,0,1,0,.32,2.85,2.85,0,0,1-.14.5L40,31.32a1.53,1.53,0,0,1-.42.78,1.28,1.28,0,0,1-.76.2H37.07a1.2,1.2,0,0,1-.8-.2,1.42,1.42,0,0,1-.38-.8L32.8,18.43,29.72,31.28a1.56,1.56,0,0,1-.38.8,1.21,1.21,0,0,1-.79.2Zm25.65.54a13.23,13.23,0,0,1-3.08-.36,9,9,0,0,1-2.29-.8,1.44,1.44,0,0,1-.62-.56,1.41,1.41,0,0,1-.12-.56v-1c0-.42.16-.62.46-.62a1.13,1.13,0,0,1,.36.06l.5.2a10,10,0,0,0,2.19.69,12,12,0,0,0,2.38.24,5.48,5.48,0,0,0,2.91-.65,2.15,2.15,0,0,0,1-1.9,2,2,0,0,0-.54-1.4,5,5,0,0,0-2-1l-2.89-.89a6.1,6.1,0,0,1-3.2-2,4.82,4.82,0,0,1-1-2.89,4.56,4.56,0,0,1,.54-2.22,5,5,0,0,1,1.44-1.63,6.35,6.35,0,0,1,2.08-1,8.6,8.6,0,0,1,2.51-.34,10,10,0,0,1,1.34.08c.46.06.88.14,1.3.22s.77.2,1.13.32a4.36,4.36,0,0,1,.84.36,1.73,1.73,0,0,1,.6.5,1,1,0,0,1,.18.65v.94c0,.42-.16.64-.46.64a2.08,2.08,0,0,1-.76-.24,9.07,9.07,0,0,0-3.83-.78,5.12,5.12,0,0,0-2.65.56,1.93,1.93,0,0,0-.94,1.78,1.85,1.85,0,0,0,.6,1.41,6,6,0,0,0,2.19,1.1l2.84.9a6.09,6.09,0,0,1,3.09,1.92,4.48,4.48,0,0,1,.92,2.79A5.14,5.14,0,0,1,59,29.53a5.34,5.34,0,0,1-1.46,1.75,6.49,6.49,0,0,1-2.21,1.12,9.49,9.49,0,0,1-2.85.42Z"/><path class="cls-2" d="M56.25,42.52c-6.57,4.85-16.11,7.42-24.31,7.42A44,44,0,0,1,2.27,38.63c-.62-.56-.06-1.32.67-.88a59.87,59.87,0,0,0,29.7,7.88A59.32,59.32,0,0,0,55.29,41c1.1-.5,2,.72,1,1.52ZM59,39.4c-.84-1.07-5.55-.52-7.68-.26-.64.08-.74-.48-.16-.9,3.75-2.63,9.91-1.87,10.63-1s-.2,7.06-3.71,10c-.54.46-1.06.22-.82-.38.8-2,2.58-6.42,1.74-7.48Z"/></svg>