<?xml version="1.0" encoding="utf-8"?>
<!-- Generator: Adobe Illustrator 24.3.0, SVG Export Plug-In . SVG Version: 6.00 Build 0)  -->
<svg version="1.1" id="Layer_1" xmlns="http://www.w3.org/2000/svg" xmlns:xlink="http://www.w3.org/1999/xlink" x="0px" y="0px"
	 viewBox="0 0 240 240" style="enable-background:new 0 0 240 240;" xml:space="preserve">
<style type="text/css">
	.st0{fill:#326CE3;}
	.st1{fill:#FFFFFF;stroke:#FFFFFF;stroke-width:0.2316;}
</style>
<g id="kubernetes-icon" transform="translate(0 -0.474)">
	<path id="Path_8939" class="st0" d="M119.37,23.47c-1.79,0.1-3.54,0.57-5.15,1.36L44.58,58.05c-3.64,1.73-6.28,5.02-7.19,8.95
		l-17.05,74.55c-0.82,3.5-0.14,7.19,1.87,10.17c0.24,0.36,0.49,0.71,0.75,1.05l48.12,59.83c2.54,3.12,6.37,4.92,10.4,4.9h77.16
		c4.03-0.02,7.84-1.84,10.4-4.96l48.09-59.83c2.54-3.12,3.46-7.25,2.5-11.16l-17.16-74.6c-0.91-3.92-3.55-7.21-7.19-8.95
		l-69.53-33.16c-2-0.99-4.22-1.45-6.45-1.36H119.37z"/>
	<path id="Path_8940" class="st1" d="M120,48.88c-2.4,0.17-4.22,2.23-4.09,4.63v1.17c0.12,1.33,0.31,2.65,0.58,3.95
		c0.39,2.51,0.53,5.04,0.42,7.58c-0.24,0.83-0.71,1.58-1.36,2.16l-0.09,1.76c-2.53,0.21-5.04,0.6-7.52,1.16
		c-10.42,2.35-19.89,7.75-27.21,15.53l-1.5-1.06c-0.82,0.25-1.71,0.16-2.47-0.25c-2.03-1.5-3.9-3.19-5.6-5.05
		c-0.85-1.02-1.77-1.99-2.73-2.91l-0.93-0.74c-0.82-0.66-1.84-1.05-2.89-1.09c-1.28-0.07-2.51,0.48-3.32,1.47
		c-1.41,1.98-0.95,4.73,1.02,6.14l0.84,0.69c1.11,0.73,2.27,1.39,3.46,1.98c2.23,1.23,4.32,2.7,6.23,4.37
		c0.5,0.71,0.79,1.54,0.84,2.4l1.36,1.26c-7.35,11.04-10.37,24.4-8.48,37.53l-1.76,0.49c-0.45,0.73-1.06,1.34-1.79,1.8
		c-2.44,0.65-4.94,1.06-7.46,1.23c-1.34,0.03-2.67,0.13-4,0.31l-1.11,0.25h-0.13c-2.29,0.3-3.9,2.39-3.6,4.68
		c0.3,2.29,2.39,3.9,4.68,3.6c0.27-0.03,0.53-0.09,0.78-0.18h0.08l1.12-0.13c1.27-0.38,2.52-0.84,3.73-1.36
		c2.35-0.94,4.78-1.64,7.26-2.11c0.86,0.05,1.69,0.34,2.39,0.84l1.87-0.31c4.06,12.6,12.6,23.28,24,30.01l-0.77,1.58
		c0.35,0.73,0.48,1.55,0.37,2.35c-1.03,2.39-2.29,4.68-3.77,6.83c-0.81,1.07-1.56,2.18-2.24,3.33l-0.53,1.12
		c-1.16,1.99-0.49,4.55,1.5,5.71c1.99,1.16,4.55,0.49,5.71-1.5c0.12-0.21,0.23-0.43,0.31-0.66l0.52-1.06
		c0.47-1.25,0.87-2.52,1.2-3.81c0.74-2.63,1.83-5.15,3.24-7.48c0.49-0.46,1.12-0.77,1.79-0.88l0.94-1.71
		c12.35,4.75,26.03,4.78,38.4,0.09l0.84,1.59c0.84,0.13,1.6,0.58,2.11,1.26c1.17,2.24,2.13,4.58,2.85,7
		c0.33,1.3,0.74,2.57,1.21,3.82l0.52,1.06c0.79,2.17,3.19,3.29,5.35,2.5c2.17-0.79,3.29-3.19,2.5-5.35c-0.09-0.24-0.2-0.48-0.33-0.7
		l-0.55-1.1c-0.68-1.15-1.43-2.26-2.24-3.32c-1.44-2.09-2.69-4.3-3.75-6.61c-0.2-0.86-0.05-1.76,0.42-2.5
		c-0.27-0.55-0.5-1.11-0.69-1.68c11.38-6.78,19.88-17.48,23.9-30.1l1.77,0.31c0.64-0.57,1.48-0.87,2.33-0.84
		c2.48,0.5,4.9,1.2,7.26,2.11c1.21,0.56,2.46,1.04,3.73,1.44c0.3,0.08,0.74,0.15,1.07,0.23h0.08c2.19,0.73,4.55-0.46,5.28-2.64
		c0.73-2.19-0.46-4.55-2.64-5.28c-0.25-0.08-0.52-0.14-0.78-0.18l-1.21-0.29c-1.33-0.18-2.66-0.28-4-0.31
		c-2.52-0.16-5.02-0.57-7.46-1.23c-0.75-0.42-1.38-1.04-1.8-1.8l-1.68-0.5c1.8-13.12-1.28-26.45-8.66-37.45l1.47-1.36
		c-0.06-0.86,0.22-1.71,0.77-2.36c1.92-1.65,3.99-3.1,6.19-4.35c1.19-0.61,2.34-1.28,3.45-2.02l0.91-0.74
		c1.96-1.22,2.56-3.8,1.34-5.77s-3.8-2.56-5.77-1.34c-0.27,0.17-0.53,0.37-0.75,0.6l-0.93,0.74c-0.97,0.92-1.88,1.89-2.73,2.91
		c-1.65,1.89-3.49,3.61-5.47,5.14c-0.8,0.32-1.68,0.42-2.53,0.27l-1.58,1.12c-9.13-9.57-21.42-15.5-34.59-16.69
		c0-0.62-0.08-1.56-0.09-1.86c-0.71-0.49-1.2-1.23-1.36-2.08c-0.09-2.52,0.07-5.05,0.48-7.54c0.27-1.31,0.46-2.63,0.58-3.95v-1.26
		c0.13-2.4-1.69-4.47-4.09-4.63L120,48.88z M114.79,81.16l-1.26,21.83h-0.09c-0.08,1.35-0.87,2.55-2.08,3.15
		c-1.21,0.62-2.67,0.49-3.75-0.34L89.7,93.11c5.7-5.6,12.84-9.49,20.63-11.24c1.46-0.31,2.93-0.55,4.42-0.71L114.79,81.16z
		 M125.21,81.16c9.4,1.17,18.16,5.39,24.93,12.02l-17.73,12.6c-1.58,1.27-3.89,1.01-5.16-0.58c-0.51-0.64-0.79-1.43-0.8-2.25
		L125.21,81.16z M83.22,101.33l16.37,14.61v0.09c1.53,1.33,1.7,3.65,0.37,5.18c-0.48,0.55-1.11,0.95-1.81,1.14v0.03l-21.01,6.05
		C76.1,118.97,78.24,109.44,83.22,101.33L83.22,101.33z M156.66,101.33c4.97,8.09,7.17,17.58,6.26,27.04l-21.05-6.06v-0.08
		c-1.31-0.35-2.31-1.4-2.61-2.72c-0.3-1.32,0.15-2.69,1.16-3.59l16.25-14.54L156.66,101.33z M116.66,117.08h6.7l4.09,5.2l-1.49,6.5
		l-6.02,2.89l-6.03-2.89l-1.42-6.5L116.66,117.08z M138.13,134.81c0.28-0.03,0.56-0.03,0.84,0l21.66,3.65
		c-3.18,9.01-9.3,16.7-17.37,21.81l-8.37-20.27c-0.79-1.88,0.09-4.04,1.96-4.83c0.39-0.16,0.8-0.26,1.21-0.28L138.13,134.81z
		 M101.75,134.9c2.03,0.03,3.64,1.69,3.61,3.72c-0.01,0.48-0.11,0.95-0.3,1.39v0.08l-8.32,20.11c-7.97-5.11-14.02-12.7-17.23-21.6
		l21.47-3.64c0.24-0.02,0.48-0.02,0.72,0L101.75,134.9z M119.89,143.65c1.4-0.05,2.7,0.7,3.37,1.92h0.08l10.58,19.1l-4.21,1.26
		c-7.79,1.78-15.92,1.36-23.48-1.21l10.62-19.1c0.65-1.12,1.83-1.82,3.12-1.84L119.89,143.65z"/>
</g>
</svg>
