<svg id="Layer_1" data-name="Layer 1" xmlns="http://www.w3.org/2000/svg" viewBox="0 0 64 64"><defs><style>.cls-1{fill:#f03b35;}.cls-2{fill:#2a7aed;}.cls-3{fill:#0e9d4e;}.cls-4{fill:#ffb22b;}</style></defs><path class="cls-1" d="M40.07,21.15H41.9l5.22-5.21.25-2.22A23.45,23.45,0,0,0,9.24,25.16a2.8,2.8,0,0,1,1.83-.11L21.5,23.33s.53-.88.8-.82a13,13,0,0,1,17.81-1.36Z"/><path class="cls-2" d="M54.55,25.16a23.56,23.56,0,0,0-7.08-11.42l-7.32,7.32a13,13,0,0,1,4.77,10.32v1.3a6.52,6.52,0,1,1,0,13h-13L30.59,47v7.81l1.3,1.3h13a16.95,16.95,0,0,0,9.63-31Z"/><path class="cls-3" d="M18.84,56.07h13V45.64h-13a6.46,6.46,0,0,1-2.69-.59l-1.83.57L9.07,50.84l-.46,1.83a16.86,16.86,0,0,0,10.23,3.4Z"/><path class="cls-4" d="M18.84,22.23A16.95,16.95,0,0,0,8.61,52.61l7.56-7.56a6.51,6.51,0,1,1,8.62-8.62l7.56-7.55A16.92,16.92,0,0,0,18.84,22.23Z"/></svg>