<svg id="Layer_1" data-name="Layer 1" xmlns="http://www.w3.org/2000/svg" xmlns:xlink="http://www.w3.org/1999/xlink" viewBox="0 0 64 64"><defs><style>.cls-1{fill:url(#linear-gradient);}.cls-2{fill:#006dc9;}.cls-3{fill:url(#linear-gradient-2);}.cls-4{fill:url(#linear-gradient-3);}</style><linearGradient id="linear-gradient" x1="52.15" y1="474.23" x2="40.35" y2="509.09" gradientTransform="translate(-53.01 -733.05) scale(1.56)" gradientUnits="userSpaceOnUse"><stop offset="0" stop-color="#00417d"/><stop offset="1" stop-color="#005eaf"/></linearGradient><linearGradient id="linear-gradient-2" x1="55.84" y1="490.47" x2="53.11" y2="491.39" gradientTransform="translate(-53.01 -733.05) scale(1.56)" gradientUnits="userSpaceOnUse"><stop offset="0" stop-opacity="0.3"/><stop offset="0.07" stop-opacity="0.2"/><stop offset="0.32" stop-opacity="0.1"/><stop offset="0.62" stop-opacity="0.05"/><stop offset="1" stop-opacity="0"/></linearGradient><linearGradient id="linear-gradient-3" x1="54.42" y1="473.18" x2="67.37" y2="507.69" gradientTransform="translate(-53.01 -733.05) scale(1.56)" gradientUnits="userSpaceOnUse"><stop offset="0" stop-color="#00c3ee"/><stop offset="1" stop-color="#0086d6"/></linearGradient></defs><path class="cls-1" d="M22,3.73H39.76L21.33,58.34a2.84,2.84,0,0,1-2.69,1.93H4.83A2.83,2.83,0,0,1,2,57.44a2.74,2.74,0,0,1,.15-.9L19.32,5.66A2.84,2.84,0,0,1,22,3.73Z"/><path class="cls-2" d="M47.8,40.36H19.65a1.3,1.3,0,0,0-.89,2.26L36.85,59.5a2.86,2.86,0,0,0,1.94.77H54.73Z"/><path class="cls-3" d="M22,3.73a2.81,2.81,0,0,0-2.69,2L2.17,56.49a2.82,2.82,0,0,0,1.7,3.61,2.9,2.9,0,0,0,1,.17H19a3,3,0,0,0,2.32-2l3.42-10.08L37,59.6a2.92,2.92,0,0,0,1.82.67H54.67l-7-19.91H27.39L39.82,3.73Z"/><path class="cls-4" d="M44.68,5.66A2.84,2.84,0,0,0,42,3.73H22.21a2.83,2.83,0,0,1,2.68,1.93L42.06,56.54a2.82,2.82,0,0,1-1.77,3.58,2.79,2.79,0,0,1-.9.15H59.17A2.83,2.83,0,0,0,62,57.44a2.74,2.74,0,0,0-.15-.9Z"/></svg>