<?xml version="1.0" encoding="utf-8"?>
<!-- Generator: Adobe Illustrator 24.3.0, SVG Export Plug-In . SVG Version: 6.00 Build 0)  -->
<svg version="1.1" id="Layer_1" xmlns="http://www.w3.org/2000/svg" xmlns:xlink="http://www.w3.org/1999/xlink" x="0px" y="0px"
	 viewBox="0 0 240 240" style="enable-background:new 0 0 240 240;" xml:space="preserve">
<style type="text/css">
	.st0{fill:#048BD2;}
</style>
<g id="Group_21301" transform="translate(-64.578 -229.75)">
	<rect id="Rectangle_3496" x="171.42" y="276.46" class="st0" width="20.71" height="20.71"/>
	<rect id="Rectangle_3497" x="171.42" y="302.49" class="st0" width="20.71" height="20.71"/>
	<rect id="Rectangle_3498" x="171.42" y="328.53" class="st0" width="20.71" height="20.71"/>
	<rect id="Rectangle_3499" x="146.28" y="302.49" class="st0" width="20.71" height="20.71"/>
	<rect id="Rectangle_3500" x="146.28" y="328.53" class="st0" width="20.71" height="20.71"/>
	<rect id="Rectangle_3501" x="121.13" y="302.49" class="st0" width="20.71" height="20.71"/>
	<rect id="Rectangle_3502" x="121.13" y="328.53" class="st0" width="20.71" height="20.71"/>
	<rect id="Rectangle_3503" x="96.29" y="328.53" class="st0" width="20.71" height="20.71"/>
	<rect id="Rectangle_3504" x="196.57" y="328.53" class="st0" width="20.71" height="20.71"/>
	<path id="Path_8967" class="st0" d="M152.29,423.04c-76.27,0-67.39-67.15-67.39-67.15h127.33c21.47,0,28.57-6.8,28.57-6.8
		s-12.15-15.68,2.07-34.61c15.97,9.17,15.38,22.78,15.38,22.78s16.27-5.32,26.33,3.84c-5.62,18.34-30.47,17.17-30.47,17.17
		S231.03,423.04,152.29,423.04z"/>
</g>
</svg>
